<svg width="20" height="20" viewBox="0 0 20 20" fill="none" xmlns="http://www.w3.org/2000/svg">
<g id="eva:arrow-ios-downward-fill">
<path id="Vector" d="M6.66666 9.9999C6.66628 9.80519 6.73409 9.6165 6.85833 9.46657L11.025 4.46657C11.1664 4.29639 11.3697 4.18937 11.5901 4.16905C11.8104 4.14874 12.0298 4.21679 12.2 4.35824C12.3702 4.49969 12.4772 4.70295 12.4975 4.9233C12.5178 5.14366 12.4498 5.36306 12.3083 5.53324L8.57499 9.9999L12.175 14.4666C12.2442 14.5518 12.2959 14.6499 12.3271 14.7552C12.3583 14.8605 12.3684 14.9709 12.3568 15.0801C12.3451 15.1892 12.3121 15.2951 12.2594 15.3914C12.2068 15.4878 12.1356 15.5728 12.05 15.6416C11.9643 15.7179 11.8638 15.7757 11.7547 15.8113C11.6457 15.847 11.5304 15.8598 11.4162 15.8488C11.302 15.8379 11.1912 15.8034 11.091 15.7477C10.9907 15.692 10.9029 15.6161 10.8333 15.5249L6.80833 10.5249C6.70373 10.3707 6.65385 10.1858 6.66666 9.9999Z" fill="white"/>
</g>
</svg>
