<svg width="13" height="9" viewBox="0 0 13 9" fill="none" xmlns="http://www.w3.org/2000/svg">
<path id="Vector" d="M12.658 0.836695C12.5503 0.727333 12.4223 0.640569 12.2815 0.58137C12.1406 0.522171 11.9897 0.491699 11.8372 0.491699C11.6847 0.491699 11.5337 0.522171 11.3929 0.58137C11.252 0.640569 11.1241 0.727333 11.0164 0.836695L6.49899 5.41392L1.98161 0.836695C1.76392 0.616118 1.46867 0.492199 1.1608 0.492199C0.852939 0.492199 0.557682 0.616118 0.339989 0.836695C0.122296 1.05727 1.01771e-08 1.35644 1.38483e-08 1.66838C1.75196e-08 1.98032 0.122296 2.27949 0.339989 2.50007L5.684 7.91488C5.79171 8.02424 5.91965 8.11101 6.06049 8.17021C6.20134 8.2294 6.35232 8.25987 6.50481 8.25987C6.65729 8.25987 6.80828 8.2294 6.94912 8.17021C7.08997 8.11101 7.21791 8.02424 7.32562 7.91488L12.6696 2.50007C13.112 2.05178 13.112 1.29678 12.658 0.836695Z" fill="#898989"/>
</svg>
